<svg xmlns="http://www.w3.org/2000/svg" width="16.591" height="26.667"><rect width="100%" height="100%" fill="#2b2b31"/><path fill="#ecc94b" d="M-4.887 15.766c-.06 0-.123.04-.123.102-.102 1.023.082 2.086.471 3.089a8 8 0 0 0 1.8 2.72A8.9 8.9 0 0 0 .064 23.52a8.9 8.9 0 0 0 3.334.655 8.8 8.8 0 0 0 3.335-.655c1.064-.43 2.025-1.044 2.803-1.841a8 8 0 0 0 1.8-2.721 7.7 7.7 0 0 0 .353-1.178 7.6 7.6 0 0 0 .363 1.239 8 8 0 0 0 1.8 2.72 8.45 8.45 0 0 0 2.803 1.842 8.8 8.8 0 0 0 3.334.655 8.8 8.8 0 0 0 3.335-.655 8.9 8.9 0 0 0 2.803-1.841 7.7 7.7 0 0 0 1.8-2.721c.164-.389.266-.798.368-1.207v-1.984c-.06-.02-.102 0-.143.04-.9 1.78-2.086 3.15-3.518 4.092a8.77 8.77 0 0 1-4.665 1.412 8.62 8.62 0 0 1-4.665-1.391c-1.419-.913-2.615-2.269-3.493-4.045q-.002-.034-.005-.067c0-.02-.02-.062-.06-.082-.062-.02-.144 0-.165.06-.88 1.8-2.086 3.172-3.518 4.093a8.48 8.48 0 0 1-4.665 1.41 8.57 8.57 0 0 1-4.664-1.39c-1.432-.92-2.619-2.311-3.519-4.091-.02-.041-.06-.062-.102-.102z"/><path fill="#f44034" d="M-11.553 2.432c-.062 0-.123.04-.123.102-.103 1.023.082 2.087.47 3.09a8 8 0 0 0 1.8 2.72 8.9 8.9 0 0 0 2.803 1.841 8.9 8.9 0 0 0 3.335.655 8.8 8.8 0 0 0 3.335-.655c1.063-.43 2.025-1.043 2.802-1.84a8 8 0 0 0 1.8-2.722 7.7 7.7 0 0 0 .353-1.178 7.6 7.6 0 0 0 .364 1.24 8 8 0 0 0 1.8 2.72 8.45 8.45 0 0 0 2.802 1.841 8.8 8.8 0 0 0 3.335.655 8.8 8.8 0 0 0 3.335-.655 8.9 8.9 0 0 0 2.802-1.84 7.7 7.7 0 0 0 1.801-2.722c.164-.388.266-.797.368-1.206V2.493c-.061-.02-.102 0-.143.04-.9 1.78-2.086 3.15-3.518 4.092a8.77 8.77 0 0 1-4.665 1.412 8.62 8.62 0 0 1-4.665-1.391C7.22 5.733 6.022 4.377 5.145 2.6l-.005-.067c0-.02-.02-.062-.06-.082-.062-.02-.145 0-.165.061-.88 1.8-2.086 3.171-3.518 4.092a8.48 8.48 0 0 1-4.665 1.411c-1.637 0-3.232-.47-4.664-1.39-1.432-.922-2.619-2.312-3.519-4.092-.02-.041-.061-.062-.102-.102z"/></svg>